<?xml version="1.0" standalone="no"?>
<!DOCTYPE svg PUBLIC "-//W3C//DTD SVG 20010904//EN"
 "http://www.w3.org/TR/2001/REC-SVG-20010904/DTD/svg10.dtd">
<svg version="1.0" xmlns="http://www.w3.org/2000/svg"
 width="500.000000pt" height="500.000000pt" viewBox="0 0 500.000000 500.000000"
 preserveAspectRatio="xMidYMid meet">
<metadata>
Created by potrace 1.14, written by Peter Selinger 2001-2017
</metadata>
<g transform="translate(0.000000,500.000000) scale(0.100000,-0.100000)"
fill="#000000" stroke="none">
<path d="M2437 4914 c-1 -1 -50 -5 -109 -8 -59 -4 -115 -8 -125 -10 -10 -2
-39 -6 -64 -10 -168 -25 -331 -71 -595 -170 -18 -6 -38 -17 -45 -23 -8 -6 -24
-14 -36 -17 -24 -8 -205 -105 -213 -115 -3 -3 -21 -15 -40 -25 -166 -93 -497
-390 -599 -540 -8 -11 -18 -23 -21 -26 -4 -3 -24 -30 -46 -60 -127 -175 -248
-403 -309 -580 -14 -41 -30 -84 -35 -95 -10 -23 -45 -159 -60 -230 -6 -28 -12
-59 -15 -70 -39 -183 -49 -529 -20 -735 11 -85 19 -128 37 -210 6 -30 12 -57
13 -60 29 -135 107 -346 187 -505 186 -369 458 -681 798 -916 106 -74 316
-190 405 -225 201 -79 340 -124 435 -140 14 -3 33 -7 43 -10 10 -3 32 -7 50
-9 18 -2 41 -6 52 -8 11 -3 49 -8 85 -12 36 -4 79 -9 95 -11 34 -5 342 -5 395
0 72 7 162 18 183 22 12 2 38 7 57 10 107 17 340 85 475 140 95 38 359 174
375 193 3 3 39 28 80 56 193 130 425 350 557 530 12 17 37 51 57 78 20 26 36
49 36 52 0 2 18 33 41 67 37 58 137 251 167 324 95 232 153 464 179 709 13
132 7 443 -11 541 -2 11 -7 44 -12 74 -11 70 -11 74 -14 80 -1 3 -4 19 -6 35
-10 64 -68 255 -111 365 -61 156 -191 407 -215 418 -5 2 -8 8 -8 13 0 8 -13
28 -78 118 -87 122 -273 323 -392 422 -36 29 -67 56 -70 59 -3 3 -27 21 -55
39 -27 19 -52 38 -55 41 -10 12 -169 110 -178 110 -5 0 -15 7 -22 15 -7 8 -21
15 -30 15 -10 0 -20 4 -22 9 -9 25 -353 166 -480 197 -10 2 -26 6 -35 9 -29 8
-156 36 -183 40 -14 2 -38 6 -55 9 -72 12 -105 16 -185 22 -82 5 -250 11 -253
8z"/>
</g>
</svg>
